# xmcd CD database file
#
# Track frame offsets:
#	150
#	25088
#	45259
#	61662
#	81202
#	104587
#	123123
#	145874
#	160820
#	181794
#	201487
#	221369
#	242123
#
# Disc length: 3522 seconds
#
# Revision: 0
# Processed by: cddbd v1.5.2PL0 Copyright (c) Steve Scherf et al.
# Submitted via: CDex 1.51
#
DISCID=a70dc00d
DTITLE=Johnny Pacheco - Celebracion
DYEAR=2001
DGENRE=Salsa
TTITLE0=El Tumbaito
TTITLE1=Esa Mujer
TTITLE2=Sin Fe
TTITLE3=Ay Maria Elena
TTITLE4=Guantanamera
TTITLE5=Yo Tengo La LLave
TTITLE6=Cuentos Marinos
TTITLE7=Dame Un Traguito
TTITLE8=Juaniquita
TTITLE9=Siento Una Flauta
TTITLE10=Llegaron Los Koreanos
TTITLE11=Salsero Sentimental
TTITLE12=Corta and Clava
EXTD=YEAR: 2001
EXTT0=
EXTT1=
EXTT2=
EXTT3=
EXTT4=
EXTT5=
EXTT6=
EXTT7=
EXTT8=
EXTT9=
EXTT10=
EXTT11=
EXTT12=
PLAYORDER=
